HIERARCHY
ROOT Hips
{
	OFFSET -0.001795 -0.223333 0.028219
	CHANNELS 6 Xposition Yposition Zposition Zrotation Yrotation Xrotation 
	JOINT LeftUpLeg
	{
		OFFSET 0.069520 -0.091406 -0.006815
		CHANNELS 3 Zrotation Yrotation Xrotation
		JOINT LeftLeg
		{
			OFFSET 0.034277 -0.375199 -0.004496
			CHANNELS 3 Zrotation Yrotation Xrotation
			JOINT LeftFoot
			{
				OFFSET -0.013596 -0.397961 -0.043693
				CHANNELS 3 Zrotation Yrotation Xrotation
				JOINT LeftToe
				{
					OFFSET 0.026358 -0.055791 0.119288
					CHANNELS 3 Zrotation Yrotation Xrotation
					End Site
					{
						OFFSET 0.000000 0.000000 0.000000
					}
				}
			}
		}
	}
	JOINT RightUpLeg
	{
		OFFSET -0.067670 -0.090522 -0.004320
		CHANNELS 3 Zrotation Yrotation Xrotation
		JOINT RightLeg
		{
			OFFSET -0.038290 -0.382569 -0.008850
			CHANNELS 3 Zrotation Yrotation Xrotation
			JOINT RightFoot
			{
				OFFSET 0.015774 -0.398415 -0.042312
				CHANNELS 3 Zrotation Yrotation Xrotation
				JOINT RightToe
				{
					OFFSET -0.025372 -0.048144 0.123348
					CHANNELS 3 Zrotation Yrotation Xrotation
					End Site
					{
						OFFSET 0.000000 0.000000 0.000000
					}
				}
			}
		}
	}
	JOINT Spine
	{
		OFFSET -0.002533 0.108963 -0.026696
		CHANNELS 3 Zrotation Yrotation Xrotation
		JOINT Spine1
		{
			OFFSET 0.005487 0.135180 0.001092
			CHANNELS 3 Zrotation Yrotation Xrotation
			JOINT Spine2
			{
				OFFSET 0.001457 0.052922 0.025425
				CHANNELS 3 Zrotation Yrotation Xrotation
				JOINT Neck
				{
					OFFSET -0.002778 0.213870 -0.042857
					CHANNELS 3 Zrotation Yrotation Xrotation
					JOINT Head
					{
						OFFSET 0.005152 0.064970 0.051349
						CHANNELS 3 Zrotation Yrotation Xrotation
						End Site
						{
							OFFSET 0.000000 0.000000 0.000000
						}
					}
				}
				JOINT LeftShoulder
				{
					OFFSET 0.078845 0.121749 -0.034090
					CHANNELS 3 Zrotation Yrotation Xrotation
					JOINT LeftArm
					{
						OFFSET 0.090977 0.030469 -0.008868
						CHANNELS 3 Zrotation Yrotation Xrotation
						JOINT LeftForeArm
						{
							OFFSET 0.259612 -0.012772 -0.027456
							CHANNELS 3 Zrotation Yrotation Xrotation
							JOINT LeftHand
							{
								OFFSET 0.249234 0.008986 -0.001171
								CHANNELS 3 Zrotation Yrotation Xrotation
								End Site
								{
									OFFSET 0.000000 0.000000 0.000000
								}
							}
						}
					}
				}
				JOINT RightShoulder
				{
					OFFSET -0.081759 0.118833 -0.038615
					CHANNELS 3 Zrotation Yrotation Xrotation
					JOINT RightArm
					{
						OFFSET -0.096012 0.032551 -0.009143
						CHANNELS 3 Zrotation Yrotation Xrotation
						JOINT RightForeArm
						{
							OFFSET -0.253742 -0.013329 -0.021401
							CHANNELS 3 Zrotation Yrotation Xrotation
							JOINT RightHand
							{
								OFFSET -0.255298 0.007772 -0.005559
								CHANNELS 3 Zrotation Yrotation Xrotation
								End Site
								{
									OFFSET 0.000000 0.000000 0.000000
								}
							}
						}
					}
				}
			}
		}
	}
}
MOTION
Frames: 13
Frame Time: 0.050000
0.076279 0.939854 -0.047177 -5.751779 33.817633 8.604963 5.568031 -1.123438 -11.226643 -0.145548 0.032172 -5.940806 -11.990348 -14.468791 9.865909 0.000000 0.000000 0.000000 1.751903 0.969024 -9.848615 1.026709 -0.243958 -2.361579 2.086949 4.489920 6.158164 0.000000 0.000000 0.000000 -4.243999 0.016859 -3.105853 -5.656041 2.053530 1.490977 1.133178 4.277012 5.943216 2.852341 2.071690 -19.022865 0.000000 0.000000 0.000000 -24.798970 -10.740207 -4.079617 -48.843822 -11.865210 1.142709 -11.541493 -51.762417 3.701116 0.000000 0.000000 0.000000 16.279670 17.718467 13.468280 44.821196 37.912227 9.238569 -8.243041 55.752652 1.193565 0.000000 0.000000 0.000000 
0.076230 0.939778 -0.046168 -5.683894 34.575790 8.919865 5.295574 -1.136695 -11.350422 -0.274276 0.021468 -6.076356 -12.002318 -14.191769 10.059194 0.000000 0.000000 0.000000 1.429492 0.936201 -9.911624 1.521873 -0.329233 -2.630234 1.656802 3.619700 6.039936 0.000000 0.000000 0.000000 -4.431722 0.009175 -3.187999 -5.671951 2.041411 1.410681 1.274274 3.783039 5.910939 2.865924 2.055919 -19.062962 0.000000 0.000000 0.000000 -24.919654 -11.026777 -3.922855 -49.282850 -11.280779 0.914133 -12.168984 -53.968592 4.134212 0.000000 0.000000 0.000000 16.503828 15.560711 12.283180 46.769467 33.669255 7.838742 -4.284907 62.228168 4.419811 0.000000 0.000000 0.000000 
0.076225 0.939727 -0.045144 -5.526502 35.517566 9.093217 5.173891 -1.160523 -11.526698 -0.381143 0.014644 -5.756376 -12.189447 -14.643597 9.931671 0.000000 0.000000 0.000000 1.190244 0.908154 -10.033306 1.825120 -0.380809 -2.508620 1.086129 2.455040 5.634166 0.000000 0.000000 0.000000 -4.542913 0.007587 -2.950324 -5.178968 1.817255 1.306541 1.067070 2.833004 6.345692 2.386238 2.257909 -18.862988 0.000000 0.000000 0.000000 -25.853948 -11.079368 -3.989134 -48.630255 -10.720700 0.725782 -11.621627 -55.549154 4.157360 0.000000 0.000000 0.000000 17.774223 12.771889 11.012253 48.120360 27.432135 5.131482 13.363013 68.642364 17.742508 0.000000 0.000000 0.000000 
0.075920 0.939835 -0.044441 -5.605713 36.276976 9.365122 5.324752 -1.258123 -12.391714 -0.277897 0.018874 -4.920537 -11.852092 -14.413058 9.522529 0.000000 0.000000 0.000000 1.267015 0.920701 -10.274887 2.085237 -0.432223 -2.858685 0.881913 2.049210 5.655450 0.000000 0.000000 0.000000 -4.179807 0.014656 -2.969858 -5.075192 1.741157 1.375866 0.947624 1.714512 6.504637 1.416904 2.771753 -19.273032 0.000000 0.000000 0.000000 -26.367370 -10.736905 -4.038052 -48.435942 -10.838421 0.733014 -10.200102 -55.845504 3.631808 0.000000 0.000000 0.000000 18.521412 11.105349 10.096004 49.573420 22.557385 3.149833 30.379472 68.983014 30.243495 0.000000 0.000000 0.000000 
0.075008 0.940000 -0.044294 -5.553360 36.037403 9.385049 5.258356 -1.259588 -12.454255 -0.114866 0.024852 -4.605588 -11.787462 -14.805290 9.118137 0.000000 0.000000 0.000000 1.102863 0.918703 -10.582192 2.458497 -0.490753 -2.746427 0.729566 1.700676 5.523939 0.000000 0.000000 0.000000 -3.896760 0.028088 -2.730308 -5.047578 1.730406 1.418824 0.865416 1.459943 6.438916 1.126503 2.822930 -18.741398 0.000000 0.000000 0.000000 -27.060868 -10.601768 -4.168973 -47.502760 -10.231482 0.580653 -9.850943 -55.216048 3.549148 0.000000 0.000000 0.000000 19.771878 9.032996 9.134751 50.132700 18.598980 1.348820 44.210990 66.557176 39.160168 0.000000 0.000000 0.000000 
0.073355 0.940021 -0.044719 -5.661518 35.476868 9.458846 5.555583 -1.279536 -12.652269 -0.204098 0.029091 -4.360161 -11.385952 -14.203135 8.975808 0.000000 0.000000 0.000000 1.192406 0.949894 -10.912215 2.340184 -0.469569 -2.980681 1.094204 2.453718 5.904644 0.000000 0.000000 0.000000 -3.641343 0.040236 -2.576569 -4.885536 1.691099 1.323261 1.007129 1.288410 6.511193 0.378007 3.250750 -19.296844 0.000000 0.000000 0.000000 -27.093738 -10.352216 -4.133374 -47.572935 -10.794418 0.739770 -8.691694 -52.649044 2.939378 0.000000 0.000000 0.000000 20.708802 8.892098 9.180143 51.130739 17.386040 0.855245 45.944329 63.789506 38.332820 0.000000 0.000000 0.000000 
0.071337 0.939890 -0.045476 -5.826353 33.970141 9.418002 5.694054 -1.247915 -12.493688 -0.009140 0.041024 -4.492998 -10.938378 -13.887572 8.563382 0.000000 0.000000 0.000000 1.378244 0.996975 -11.139850 2.273796 -0.450483 -3.032231 1.760636 3.767902 6.311138 0.000000 0.000000 0.000000 -3.286098 0.052168 -2.526396 -5.224572 1.867262 1.387592 1.293727 1.753708 6.793908 0.416803 3.192308 -19.239018 0.000000 0.000000 0.000000 -26.781087 -10.832949 -3.613032 -47.383064 -11.489048 0.936567 -6.544092 -49.144798 1.902682 0.000000 0.000000 0.000000 22.020210 9.379394 9.765872 51.128455 18.681319 1.233780 43.550635 61.993459 35.191158 0.000000 0.000000 0.000000 
0.069469 0.939948 -0.046189 -5.916200 32.698309 9.457524 5.871338 -1.202005 -12.128054 -0.161062 0.050014 -5.031547 -10.481301 -13.186474 8.434150 0.000000 0.000000 0.000000 1.626202 1.058234 -11.567260 2.103923 -0.410565 -2.705973 2.294923 4.830872 6.306105 0.000000 0.000000 0.000000 -3.195632 0.061041 -2.479423 -5.219694 1.886401 1.528633 1.489631 2.022640 6.586961 0.192910 3.242479 -19.107200 0.000000 0.000000 0.000000 -26.657924 -10.508018 -3.560504 -46.765585 -11.680061 0.957980 -6.025866 -45.523900 1.722279 0.000000 0.000000 0.000000 22.467905 9.935582 10.081615 51.630246 19.470143 1.645283 42.875701 60.128229 33.291269 0.000000 0.000000 0.000000 
0.068104 0.939968 -0.046463 -5.946283 31.833044 9.622520 6.015454 -1.198457 -12.153038 -0.257112 0.055988 -5.170050 -10.113854 -12.545920 8.397395 0.000000 0.000000 0.000000 1.781430 1.088644 -11.694683 1.930460 -0.383695 -2.924900 2.946343 6.080319 6.767851 0.000000 0.000000 0.000000 -3.283113 0.062822 -2.617555 -5.226103 1.920476 1.421318 1.861342 1.827871 6.801508 0.275118 3.133370 -19.132614 0.000000 0.000000 0.000000 -25.933816 -10.433181 -3.126783 -47.038573 -11.776186 0.802468 -5.532740 -42.266004 1.577945 0.000000 0.000000 0.000000 22.836350 10.326311 10.215554 52.359796 19.993293 1.968915 41.938845 58.628221 31.506122 0.000000 0.000000 0.000000 
0.067205 0.940064 -0.046467 -6.039576 31.089238 9.675939 6.118662 -1.177847 -11.993302 -0.205774 0.061512 -5.564146 -9.799409 -12.323930 8.068509 0.000000 0.000000 0.000000 1.798384 1.111754 -11.952295 1.866011 -0.373061 -3.057782 3.337030 6.803233 6.986253 0.000000 0.000000 0.000000 -3.264940 0.063582 -2.882131 -5.117650 1.879780 1.554340 2.098311 1.736468 6.803645 0.206150 3.109710 -19.094660 0.000000 0.000000 0.000000 -26.056844 -9.797595 -3.300365 -46.532344 -11.192047 0.529717 -6.948987 -39.704412 2.128545 0.000000 0.000000 0.000000 23.540759 10.252391 10.173936 51.970468 19.531963 1.657209 41.036719 56.720429 29.517543 0.000000 0.000000 0.000000 
0.066308 0.940202 -0.046487 -6.036310 30.760851 9.701862 6.415463 -1.158948 -11.717067 -0.540969 0.060454 -5.801836 -9.263239 -11.551864 7.784038 0.000000 0.000000 0.000000 2.025638 1.148559 -12.162250 1.754172 -0.351485 -2.868676 3.604449 7.380940 6.788878 0.000000 0.000000 0.000000 -3.428557 0.062601 -2.958691 -4.883902 1.777172 1.674202 2.258384 1.512472 7.007132 0.350668 2.979449 -18.985496 0.000000 0.000000 0.000000 -25.969166 -9.385116 -3.362523 -46.234387 -10.591169 0.246566 -8.040534 -37.981017 2.485216 0.000000 0.000000 0.000000 23.682530 9.697333 9.719867 51.988947 18.524849 1.202516 40.208304 55.355708 28.088520 0.000000 0.000000 0.000000 
0.064929 0.940060 -0.046574 -6.154849 30.298004 9.767061 6.683656 -1.149266 -11.565374 -0.476688 0.065191 -5.778094 -8.774787 -11.096249 7.307221 0.000000 0.000000 0.000000 2.249546 1.188119 -12.400026 1.799115 -0.358382 -2.974359 4.058047 8.243409 6.985135 0.000000 0.000000 0.000000 -3.311328 0.062312 -3.173439 -4.575386 1.655319 1.662263 2.225312 1.049627 7.349267 0.481957 2.793213 -18.543305 0.000000 0.000000 0.000000 -26.039949 -9.263105 -3.184216 -45.834373 -10.576514 0.159675 -8.403114 -36.205043 2.602887 0.000000 0.000000 0.000000 23.742080 9.874655 9.634498 51.959366 18.023464 0.985636 38.452222 53.992671 26.049259 0.000000 0.000000 0.000000 
0.062613 0.940074 -0.046842 -6.170995 30.333167 9.675143 6.842731 -1.147061 -11.480128 -0.365872 0.065468 -5.859479 -8.869280 -11.157907 7.426070 0.000000 0.000000 0.000000 2.533110 1.219607 -12.478450 1.801824 -0.354467 -2.756621 3.997010 8.119594 6.981888 0.000000 0.000000 0.000000 -3.472446 0.062370 -2.973299 -4.345066 1.572387 1.496681 2.055124 0.611666 7.601645 0.664467 2.658612 -18.520384 0.000000 0.000000 0.000000 -26.008557 -9.588169 -2.863799 -45.364554 -11.025451 0.291199 -7.974973 -34.624104 2.430627 0.000000 0.000000 0.000000 23.847691 9.831715 9.540769 52.071928 17.808629 0.879813 37.099808 52.511422 24.363534 0.000000 0.000000 0.000000 
